<svg aria-hidden="true" style="position: absolute; width: 0; height: 0; overflow: hidden;" version="1.1" xmlns="http://www.w3.org/2000/svg" xmlns:xlink="http://www.w3.org/1999/xlink">
	<defs>
		<symbol id="icon-outlined-arrow" viewBox="0 0 31 32">
			<path d="M7.086 28.654c0.207 0.108 0.44 0.157 0.673 0.143s0.458-0.092 0.65-0.224l16.64-11.52c0.17-0.118 0.309-0.275 0.405-0.458s0.146-0.387 0.146-0.594-0.050-0.411-0.146-0.594c-0.096-0.183-0.235-0.34-0.405-0.458l-16.64-11.52c-0.192-0.134-0.417-0.212-0.65-0.227s-0.466 0.035-0.674 0.143c-0.207 0.109-0.381 0.272-0.501 0.472s-0.184 0.43-0.183 0.664v23.040c-0 0.234 0.064 0.463 0.185 0.663s0.294 0.363 0.501 0.471zM8.96 6.924l13.111 9.076-13.111 9.076v-18.153z"></path>
		</symbol>
		<symbol id="icon-close" viewBox="0 0 32 32">
			<path d="M22.835 22.364l-0.471 0.471c-0.26 0.26-0.682 0.26-0.943 0l-5.421-5.421-5.421 5.421c-0.26 0.26-0.682 0.26-0.943 0l-0.471-0.471c-0.26-0.26-0.26-0.682 0-0.943l5.421-5.421-5.421-5.421c-0.26-0.26-0.26-0.682 0-0.943l0.471-0.471c0.26-0.26 0.682-0.26 0.943 0l5.421 5.421 5.421-5.421c0.26-0.26 0.683-0.26 0.943 0l0.471 0.471c0.26 0.26 0.26 0.682 0 0.943l-5.421 5.421 5.421 5.421c0.26 0.26 0.26 0.683 0 0.943z"></path>
		</symbol>
		<symbol id="icon-down-arrow-alt" viewBox="0 0 31 32">
			<path d="M23.945 16.611l-1.81-1.81-5.495 5.495v-12.27h-2.56v12.27l-5.495-5.495-1.81 1.81 8.585 8.585 8.585-8.585z"></path>
		</symbol>
		<symbol id="icon-filled-arrow" viewBox="0 0 31 32">
			<path d="M11.52 24.666l10.24-8.96-10.24-8.96v17.92z"></path>
		</symbol>
		<symbol id="icon-logo-icon" viewBox="0 0 32 32">
			<path d="M17.285 3.195c0.38-0.041 0.82 0.039 1.185 0.142 0.827 0.235 1.499 0.738 1.898 1.456 0.415 0.736 0.494 1.596 0.221 2.387-0.347 0.976-1.092 1.466-2.022 1.917l0.010 2.845c0.665 0.189 1.311 0.403 1.915 0.729 1.387 0.749 2.336 2.012 2.733 3.449 0.42 1.507 0.181 3.109-0.665 4.452-0.776 1.218-2.014 2.117-3.495 2.461-1.935 0.451-3.576-0.037-5.24-0.959-0.735 0.732-1.462 1.473-2.179 2.222 0.32 0.704 0.427 1.444 0.214 2.192-0.208 0.732-0.758 1.359-1.462 1.73-0.789 0.416-1.688 0.492-2.553 0.261-0.858-0.229-1.58-0.724-1.999-1.469-0.413-0.732-0.448-1.589-0.18-2.371 0.305-0.888 0.925-1.435 1.797-1.841 0.939-0.342 1.715-0.23 2.631 0.078 0.763-0.748 1.481-1.534 2.252-2.275-0.847-1.548-1.121-2.866-0.681-4.572-0.959-0.417-1.884-0.903-2.843-1.321-0.513 0.497-1.139 0.838-1.875 0.954-0.878 0.138-1.803-0.085-2.525-0.566-0.715-0.483-1.185-1.218-1.301-2.033-0.119-0.791 0.105-1.662 0.648-2.286 0.56-0.644 1.43-1.032 2.309-1.117 0.863-0.078 1.724 0.167 2.392 0.681 0.855 0.667 1.101 1.496 1.205 2.484 0.91 0.52 1.951 0.92 2.899 1.384 1.233-1.358 2.134-1.787 3.931-2.303l0.002-2.824c-0.322-0.12-0.643-0.266-0.923-0.458-0.709-0.489-1.174-1.225-1.289-2.040-0.106-0.811 0.139-1.628 0.682-2.269 0.594-0.694 1.387-1.010 2.307-1.123zM21.246 17.242c-0.183-1.943-2.014-3.383-4.1-3.225-2.105 0.159-3.668 1.885-3.483 3.844s2.046 3.406 4.149 3.221c2.083-0.183 3.618-1.898 3.435-3.841z"></path>
			<path d="M27.276 12.524c0.089-0.004 0.175-0.005 0.264 0.007 0.277 0.037 0.549 0.162 0.702 0.388 0.162 0.24 0.184 0.56 0.206 0.838 0.11 1.377 0.028 2.809 0.028 4.19-0 1.128 0.134 2.658-0.091 3.745-0.071 0.341-0.314 0.505-0.605 0.69-0.111 0.013-0.227 0.027-0.339 0.021-0.25-0.013-0.486-0.117-0.648-0.294-0.16-0.176-0.155-0.529-0.169-0.749-0.102-1.584-0.016-3.218-0.014-4.806 0.001-0.903-0.132-2.63 0.071-3.436 0.073-0.288 0.352-0.439 0.595-0.593z"></path>
			<path d="M24.726 14.736c0.3 0.051 0.565 0.156 0.74 0.399 0.269 0.374 0.277 4.041 0.142 4.564-0.074 0.286-0.339 0.426-0.591 0.563-0.288-0.016-0.668-0.040-0.86-0.273-0.287-0.346-0.263-4.243-0.1-4.732 0.095-0.284 0.408-0.404 0.67-0.522z"></path>
		</symbol>
		<symbol id="icon-Youtube" viewBox="0 0 31 32">
			<path d="M27.639 9.981c-0.146-0.541-0.431-1.034-0.826-1.431s-0.888-0.683-1.429-0.83c-2.004-0.55-10.024-0.559-10.024-0.559s-8.018-0.009-10.024 0.517c-0.54 0.154-1.032 0.444-1.428 0.842s-0.683 0.892-0.833 1.433c-0.529 2.004-0.534 6.162-0.534 6.162s-0.005 4.178 0.52 6.162c0.294 1.097 1.158 1.964 2.257 2.259 2.025 0.55 10.022 0.559 10.022 0.559s8.019 0.009 10.024-0.516c0.541-0.147 1.034-0.432 1.431-0.828s0.683-0.888 0.831-1.429c0.53-2.003 0.534-6.159 0.534-6.159s0.026-4.179-0.521-6.184zM12.795 19.968l0.006-7.68 6.665 3.846-6.671 3.834z"></path>
		</symbol>
		<symbol id="icon-Facebook" viewBox="0 0 31 32">
			<path d="M28.16 16.51c0-7.112-5.731-12.878-12.8-12.878s-12.8 5.766-12.8 12.878c0 6.428 4.681 11.756 10.8 12.722v-8.999h-3.25v-3.723h3.25v-2.837c0-3.228 1.911-5.010 4.835-5.010 1.401 0 2.865 0.252 2.865 0.252v3.169h-1.614c-1.59 0-2.086 0.993-2.086 2.011v2.416h3.55l-0.567 3.723h-2.983v8.999c6.119-0.966 10.8-6.294 10.8-12.722z"></path>
		</symbol>
		<symbol id="icon-Instagram" viewBox="0 0 31 32">
			<path d="M15.358 6.676c3.078 0 3.442 0.014 4.652 0.068 1.125 0.050 1.732 0.238 2.137 0.396 0.536 0.207 0.922 0.459 1.323 0.86 0.405 0.405 0.652 0.788 0.864 1.323 0.158 0.405 0.346 1.017 0.396 2.137 0.054 1.215 0.068 1.579 0.068 4.653s-0.014 3.442-0.068 4.653c-0.050 1.125-0.238 1.732-0.396 2.137-0.207 0.536-0.459 0.922-0.86 1.323-0.405 0.405-0.788 0.652-1.323 0.864-0.405 0.158-1.017 0.346-2.137 0.396-1.215 0.054-1.58 0.068-4.653 0.068s-3.442-0.014-4.653-0.068c-1.125-0.050-1.732-0.238-2.137-0.396-0.536-0.207-0.922-0.459-1.323-0.86-0.405-0.405-0.652-0.788-0.864-1.322-0.158-0.405-0.346-1.017-0.396-2.137-0.054-1.215-0.068-1.579-0.068-4.653s0.014-3.442 0.068-4.653c0.050-1.125 0.238-1.732 0.396-2.137 0.207-0.536 0.459-0.922 0.86-1.323 0.405-0.405 0.788-0.652 1.323-0.864 0.405-0.158 1.017-0.346 2.137-0.396 1.21-0.054 1.575-0.068 4.653-0.068h0.001zM15.358 4.602c-3.127 0-3.518 0.014-4.747 0.068-1.224 0.054-2.065 0.252-2.794 0.536-0.76 0.297-1.404 0.688-2.042 1.332-0.644 0.639-1.035 1.282-1.332 2.038-0.284 0.734-0.482 1.57-0.536 2.794-0.054 1.233-0.068 1.624-0.068 4.751s0.014 3.518 0.068 4.747c0.054 1.224 0.252 2.065 0.536 2.794 0.297 0.76 0.688 1.404 1.332 2.042 0.639 0.639 1.282 1.035 2.038 1.328 0.734 0.284 1.57 0.482 2.794 0.536 1.228 0.054 1.62 0.068 4.747 0.068s3.519-0.014 4.747-0.068c1.224-0.054 2.065-0.252 2.794-0.536 0.756-0.292 1.4-0.688 2.038-1.328s1.035-1.282 1.328-2.038c0.284-0.734 0.482-1.57 0.536-2.794 0.054-1.228 0.068-1.62 0.068-4.747s-0.014-3.518-0.068-4.747c-0.054-1.224-0.252-2.065-0.536-2.794-0.284-0.765-0.675-1.408-1.318-2.047-0.639-0.639-1.282-1.035-2.038-1.327-0.734-0.284-1.57-0.482-2.794-0.536-1.233-0.058-1.624-0.072-4.751-0.072l-0.001 0.001z"></path>
			<path d="M15.358 10.204c-3.266 0-5.917 2.65-5.917 5.917s2.65 5.917 5.917 5.917c3.267 0 5.917-2.65 5.917-5.917s-2.65-5.917-5.917-5.917zM15.358 19.958c-2.119 0-3.838-1.718-3.838-3.838s1.718-3.838 3.838-3.838c2.119 0 3.838 1.718 3.838 3.838s-1.718 3.838-3.838 3.838z"></path>
			<path d="M22.889 9.97c0 0.763-0.618 1.381-1.381 1.381s-1.381-0.618-1.381-1.381 0.619-1.381 1.381-1.381c0.763 0 1.381 0.618 1.381 1.381z"></path>
		</symbol>
		<symbol id="icon-menu-alt-right" viewBox="0 0 32 32">
			<path d="M5.333 8h21.333v2.667H5.333V8zm5.334 6.667h16v2.667h-16v-2.667zm6.666 6.666h9.333V24h-9.333v-2.667z"/>
		</symbol>
	</defs>
</svg>