<svg width="80" height="81" viewBox="0 0 80 81" fill="none" xmlns="http://www.w3.org/2000/svg">
<path d="M43.7512 8.14423C44.712 8.04121 45.8256 8.24183 46.7512 8.50459C48.8454 9.09899 50.547 10.372 51.5569 12.1892C52.606 14.0517 52.8074 16.2289 52.1154 18.2311C51.2366 20.7006 49.3523 21.9424 46.9983 23.0837L47.0246 30.2858C48.7069 30.7638 50.3438 31.3047 51.8713 32.1296C55.3821 34.0258 57.7834 37.2238 58.7902 40.862C59.8545 44.6772 59.2494 48.7311 57.1076 52.1315C55.1433 55.2137 52.0108 57.49 48.261 58.362C43.3626 59.5024 39.2084 58.2674 34.9983 55.9352C33.1372 57.7894 31.2984 59.6644 29.4836 61.5593C30.2949 63.3425 30.5636 65.2133 30.0256 67.1081C29.4997 68.9606 28.1065 70.5477 26.3244 71.486C24.3276 72.539 22.0527 72.7309 19.8635 72.1472C17.6909 71.5678 15.8648 70.3137 14.8029 68.4294C13.7578 66.5769 13.6694 64.4062 14.3469 62.4284C15.1178 60.1805 16.6881 58.7956 18.8957 57.7683C21.2716 56.9023 23.2356 57.1871 25.5549 57.9655C27.4859 56.0722 29.3042 54.0835 31.2551 52.2067C29.1109 48.2888 28.4157 44.9517 29.5305 40.6345C27.1032 39.5786 24.763 38.3493 22.3342 37.2917C21.0364 38.5505 19.4501 39.4136 17.5871 39.7058C15.3655 40.0542 13.0227 39.4894 11.1965 38.2741C9.38721 37.0528 8.19688 35.1914 7.90451 33.1276C7.60447 31.1263 8.16949 28.9201 9.54513 27.3405C10.9636 25.7117 13.1651 24.7294 15.3879 24.5124C17.5722 24.3142 19.7517 24.9347 21.4436 26.237C23.6067 27.9252 24.2311 30.0231 24.4934 32.5241C26.7957 33.8393 29.4323 34.8537 31.8313 36.028C34.9524 32.5901 37.2323 31.5056 41.7815 30.1989L41.7854 23.0515C40.971 22.7478 40.1581 22.3783 39.4485 21.8923C37.6537 20.6552 36.4748 18.7916 36.1838 16.7292C35.9147 14.6773 36.5367 12.6096 37.9113 10.987C39.4137 9.23105 41.4217 8.43152 43.7512 8.14423ZM53.7805 43.6999C53.3177 38.7827 48.6813 35.1367 43.4016 35.5368C38.0746 35.9407 34.1183 40.3072 34.5852 45.2673C35.0521 50.2291 39.7639 53.8876 45.0852 53.4216C50.3591 52.9584 54.2432 48.6166 53.7805 43.6999Z" fill="white"/>
<path d="M69.0435 31.7588C69.2687 31.7484 69.4873 31.7453 69.7114 31.7755C70.4117 31.8701 71.1018 32.1853 71.4875 32.7581C71.8966 33.3659 71.9527 34.1753 72.0087 34.8794C72.2864 38.3641 72.0801 41.9892 72.0791 45.4863C72.0783 48.3421 72.418 52.2148 71.8489 54.9651C71.6698 55.8295 71.0545 56.2429 70.3178 56.7106C70.0372 56.7423 69.7435 56.7785 69.4604 56.7634C68.8282 56.7302 68.2292 56.4677 67.8204 56.0181C67.4161 55.5731 67.4277 54.68 67.392 54.1218C67.135 50.1133 67.3523 45.9766 67.3562 41.956C67.3584 39.6713 67.0213 35.2977 67.5369 33.2588C67.7213 32.5294 68.4269 32.1471 69.0435 31.7588Z" fill="white"/>
<path d="M62.5891 37.3574C63.3479 37.4878 64.0192 37.7534 64.4614 38.3675C65.1433 39.3147 65.1618 48.5955 64.8202 49.9201C64.6333 50.6442 63.9609 50.9973 63.3234 51.3458C62.5933 51.305 61.6336 51.2447 61.1461 50.6548C60.4206 49.7783 60.4806 39.9146 60.8937 38.6776C61.1336 37.9589 61.9267 37.6551 62.5891 37.3574Z" fill="white"/>
</svg>